<svg id="visual" viewBox="0 0 1920 1080" width="1920" height="1080" xmlns="http://www.w3.org/2000/svg" xmlns:xlink="http://www.w3.org/1999/xlink" version="1.1"><rect x="0" y="0" width="1920" height="1080" fill="#b6d0e3"></rect><path d="M0 764L20 778C40 792 80 820 120 828.3C160 836.7 200 825.3 240 827.3C280 829.3 320 844.7 360 845.5C400 846.3 440 832.7 480 818.8C520 805 560 791 600 781.5C640 772 680 767 720 774.3C760 781.7 800 801.3 840 820.8C880 840.3 920 859.7 960 866C1000 872.3 1040 865.7 1080 859C1120 852.3 1160 845.7 1200 833.3C1240 821 1280 803 1320 792.5C1360 782 1400 779 1440 777.5C1480 776 1520 776 1560 786.5C1600 797 1640 818 1680 827.5C1720 837 1760 835 1800 827.3C1840 819.7 1880 806.3 1900 799.7L1920 793L1920 1081L1900 1081C1880 1081 1840 1081 1800 1081C1760 1081 1720 1081 1680 1081C1640 1081 1600 1081 1560 1081C1520 1081 1480 1081 1440 1081C1400 1081 1360 1081 1320 1081C1280 1081 1240 1081 1200 1081C1160 1081 1120 1081 1080 1081C1040 1081 1000 1081 960 1081C920 1081 880 1081 840 1081C800 1081 760 1081 720 1081C680 1081 640 1081 600 1081C560 1081 520 1081 480 1081C440 1081 400 1081 360 1081C320 1081 280 1081 240 1081C200 1081 160 1081 120 1081C80 1081 40 1081 20 1081L0 1081Z" fill="#1d5bbc"></path><path d="M0 866L20 859.2C40 852.3 80 838.7 120 841.5C160 844.3 200 863.7 240 866.2C280 868.7 320 854.3 360 847.7C400 841 440 842 480 851.7C520 861.3 560 879.7 600 882C640 884.3 680 870.7 720 859.7C760 848.7 800 840.3 840 832.7C880 825 920 818 960 827.8C1000 837.7 1040 864.3 1080 875.7C1120 887 1160 883 1200 882C1240 881 1280 883 1320 886.8C1360 890.7 1400 896.3 1440 901.3C1480 906.3 1520 910.7 1560 910C1600 909.3 1640 903.7 1680 900.8C1720 898 1760 898 1800 902.2C1840 906.3 1880 914.7 1900 918.8L1920 923L1920 1081L1900 1081C1880 1081 1840 1081 1800 1081C1760 1081 1720 1081 1680 1081C1640 1081 1600 1081 1560 1081C1520 1081 1480 1081 1440 1081C1400 1081 1360 1081 1320 1081C1280 1081 1240 1081 1200 1081C1160 1081 1120 1081 1080 1081C1040 1081 1000 1081 960 1081C920 1081 880 1081 840 1081C800 1081 760 1081 720 1081C680 1081 640 1081 600 1081C560 1081 520 1081 480 1081C440 1081 400 1081 360 1081C320 1081 280 1081 240 1081C200 1081 160 1081 120 1081C80 1081 40 1081 20 1081L0 1081Z" fill="#4a65c3"></path><path d="M0 906L20 913C40 920 80 934 120 942.7C160 951.3 200 954.7 240 942.2C280 929.7 320 901.3 360 898.2C400 895 440 917 480 918.8C520 920.7 560 902.3 600 894.8C640 887.3 680 890.7 720 887C760 883.3 800 872.7 840 873.7C880 874.7 920 887.3 960 899C1000 910.7 1040 921.3 1080 928.3C1120 935.3 1160 938.7 1200 927.8C1240 917 1280 892 1320 887C1360 882 1400 897 1440 909.8C1480 922.7 1520 933.3 1560 928C1600 922.7 1640 901.3 1680 903.2C1720 905 1760 930 1800 933.3C1840 936.7 1880 918.3 1900 909.2L1920 900L1920 1081L1900 1081C1880 1081 1840 1081 1800 1081C1760 1081 1720 1081 1680 1081C1640 1081 1600 1081 1560 1081C1520 1081 1480 1081 1440 1081C1400 1081 1360 1081 1320 1081C1280 1081 1240 1081 1200 1081C1160 1081 1120 1081 1080 1081C1040 1081 1000 1081 960 1081C920 1081 880 1081 840 1081C800 1081 760 1081 720 1081C680 1081 640 1081 600 1081C560 1081 520 1081 480 1081C440 1081 400 1081 360 1081C320 1081 280 1081 240 1081C200 1081 160 1081 120 1081C80 1081 40 1081 20 1081L0 1081Z" fill="#6770ca"></path><path d="M0 957L20 954.8C40 952.7 80 948.3 120 940.7C160 933 200 922 240 930.7C280 939.3 320 967.7 360 977.8C400 988 440 980 480 975.3C520 970.7 560 969.3 600 959C640 948.7 680 929.3 720 925C760 920.7 800 931.3 840 938.7C880 946 920 950 960 944.3C1000 938.7 1040 923.3 1080 920.7C1120 918 1160 928 1200 936.7C1240 945.3 1280 952.7 1320 951C1360 949.3 1400 938.7 1440 941.3C1480 944 1520 960 1560 966.2C1600 972.3 1640 968.7 1680 962.5C1720 956.3 1760 947.7 1800 946.7C1840 945.7 1880 952.3 1900 955.7L1920 959L1920 1081L1900 1081C1880 1081 1840 1081 1800 1081C1760 1081 1720 1081 1680 1081C1640 1081 1600 1081 1560 1081C1520 1081 1480 1081 1440 1081C1400 1081 1360 1081 1320 1081C1280 1081 1240 1081 1200 1081C1160 1081 1120 1081 1080 1081C1040 1081 1000 1081 960 1081C920 1081 880 1081 840 1081C800 1081 760 1081 720 1081C680 1081 640 1081 600 1081C560 1081 520 1081 480 1081C440 1081 400 1081 360 1081C320 1081 280 1081 240 1081C200 1081 160 1081 120 1081C80 1081 40 1081 20 1081L0 1081Z" fill="#807bd0"></path><path d="M0 971L20 976.3C40 981.7 80 992.3 120 990.8C160 989.3 200 975.7 240 979.5C280 983.3 320 1004.7 360 1003.2C400 1001.7 440 977.3 480 977.5C520 977.7 560 1002.3 600 1009.3C640 1016.3 680 1005.7 720 993.3C760 981 800 967 840 973.8C880 980.7 920 1008.3 960 1019.7C1000 1031 1040 1026 1080 1012C1120 998 1160 975 1200 962.7C1240 950.3 1280 948.7 1320 952.3C1360 956 1400 965 1440 971.3C1480 977.7 1520 981.3 1560 979.5C1600 977.7 1640 970.3 1680 977.7C1720 985 1760 1007 1800 1007.8C1840 1008.7 1880 988.3 1900 978.2L1920 968L1920 1081L1900 1081C1880 1081 1840 1081 1800 1081C1760 1081 1720 1081 1680 1081C1640 1081 1600 1081 1560 1081C1520 1081 1480 1081 1440 1081C1400 1081 1360 1081 1320 1081C1280 1081 1240 1081 1200 1081C1160 1081 1120 1081 1080 1081C1040 1081 1000 1081 960 1081C920 1081 880 1081 840 1081C800 1081 760 1081 720 1081C680 1081 640 1081 600 1081C560 1081 520 1081 480 1081C440 1081 400 1081 360 1081C320 1081 280 1081 240 1081C200 1081 160 1081 120 1081C80 1081 40 1081 20 1081L0 1081Z" fill="#9687d7"></path><path d="M0 1059L20 1056.3C40 1053.7 80 1048.3 120 1041.2C160 1034 200 1025 240 1026.3C280 1027.7 320 1039.3 360 1044.2C400 1049 440 1047 480 1047.2C520 1047.3 560 1049.7 600 1045.2C640 1040.7 680 1029.3 720 1028.3C760 1027.3 800 1036.7 840 1035C880 1033.3 920 1020.7 960 1013.8C1000 1007 1040 1006 1080 1004.2C1120 1002.3 1160 999.7 1200 999.3C1240 999 1280 1001 1320 1001.2C1360 1001.3 1400 999.7 1440 1006.8C1480 1014 1520 1030 1560 1042C1600 1054 1640 1062 1680 1053.7C1720 1045.3 1760 1020.7 1800 1007.7C1840 994.7 1880 993.3 1900 992.7L1920 992L1920 1081L1900 1081C1880 1081 1840 1081 1800 1081C1760 1081 1720 1081 1680 1081C1640 1081 1600 1081 1560 1081C1520 1081 1480 1081 1440 1081C1400 1081 1360 1081 1320 1081C1280 1081 1240 1081 1200 1081C1160 1081 1120 1081 1080 1081C1040 1081 1000 1081 960 1081C920 1081 880 1081 840 1081C800 1081 760 1081 720 1081C680 1081 640 1081 600 1081C560 1081 520 1081 480 1081C440 1081 400 1081 360 1081C320 1081 280 1081 240 1081C200 1081 160 1081 120 1081C80 1081 40 1081 20 1081L0 1081Z" fill="#aa93de"></path></svg>